<?xml version="1.0" encoding="UTF-8"?>
<svg id="Layer_1" data-name="Layer 1" xmlns="http://www.w3.org/2000/svg" viewBox="0 0 1466.94 660.87">
  <defs>
    <style>
      .cls-1 {
        fill: #0c5896;
      }

      .cls-1, .cls-2 {
        stroke-width: 0px;
      }

      .cls-2 {
        fill: #454f5b;
      }
    </style>
  </defs>
  <polygon class="cls-1" points="0 228.53 1213.96 228.53 1208.22 225.57 0 225.57 0 228.53"/>
  <polygon class="cls-2" points="0 239.07 1234.45 239.07 1228.7 236.12 0 236.12 0 239.07"/>
  <polygon class="cls-1" points="0 249.62 1254.94 249.62 1249.2 246.67 0 246.67 0 249.62"/>
  <path class="cls-1" d="m0,6.35v201.69h58.96v-84.96c0-8.18.24-13.54.73-16.11.49-2.56,2.23-5.05,5.22-7.46,2.99-2.41,6.49-3.62,10.51-3.62,5.2,0,8.7,1.55,10.51,4.66,1.81,3.1,2.72,8.79,2.72,17.07v90.43h58.96v-97.82c0-12.71-.62-21.28-1.85-25.71-1.23-4.43-3.62-9.02-7.17-13.74-3.55-4.73-8.6-8.59-15.15-11.6-6.55-3.01-14.16-4.51-22.83-4.51-17.14,0-31.03,6.94-41.67,20.83V6.35H0Z"/>
  <path class="cls-1" d="m192.31,127.89c-14.43,9.8-21.65,22.63-21.65,38.49,0,11.72,4.41,22.12,13.23,31.18,8.81,9.06,22.09,13.59,39.82,13.59,21.57,0,37.68-8.03,48.32-24.09,0,7.59.69,14.58,2.07,20.98h56.15c-3.05-8.08-4.58-17.83-4.58-29.26v-59.99c0-16.25-1.01-27.24-3.03-32.95-2.02-5.71-5.98-11.13-11.89-16.25-5.91-5.12-13.94-8.89-24.09-11.3-10.15-2.41-21.28-3.62-33.39-3.62-44.62,0-70.78,15.71-78.46,47.14l53.78,5.02c1.57-10.94,9.16-16.4,22.76-16.4,5.81,0,10.22,1.08,13.22,3.25,3,2.17,4.51,6.55,4.51,13.15v3.4c-36.74,1.97-62.33,7.86-76.76,17.66Zm76.76,17.07c0,12.81-2.22,21.08-6.65,24.82-4.43,3.74-9.8,5.61-16.11,5.61-9.95,0-14.92-4.53-14.92-13.59,0-13.4,12.56-21.42,37.68-24.08v7.24Z"/>
  <path class="cls-1" d="m421.12,175.39c-18.42,0-28.96-5.42-31.62-16.25l-46.54,6.35c9.65,30.44,34.82,45.66,75.51,45.66,24.13,0,43.07-4.83,56.81-14.49,13.74-9.66,20.61-22.72,20.61-39.18,0-10.74-3.1-19.91-9.31-27.5-6.21-7.59-13.69-12.82-22.45-15.68-8.77-2.86-25.47-5.65-50.1-8.38-9.46-1.07-14.19-4.07-14.19-8.99,0-1.67,1.55-3.37,4.65-5.1,3.1-1.72,7.81-2.58,14.11-2.58,13.3,0,22.02,4.43,26.15,13.3l44.62-8.42c-10.05-26.3-33.3-39.45-69.74-39.45-20.79,0-37.58,4.75-50.39,14.26-12.81,9.5-19.21,21.94-19.21,37.31,0,11.03,3.79,21.06,11.38,30.07,7.58,9.01,26.65,15.64,57.18,19.87,11.03,1.48,18.03,2.93,20.98,4.36,2.95,1.43,4.43,3.42,4.43,5.99,0,5.91-7.63,8.86-22.9,8.86Z"/>
  <path class="cls-1" d="m606.85,6.35v201.69h33.25c1.97-7.88,4.53-14.78,7.68-20.69,11.03,15.86,27.14,23.79,48.32,23.79s37.63-7.41,48.47-22.24c10.83-14.82,16.25-34.35,16.25-58.59,0-13.3-2.12-25.98-6.35-38.05-4.24-12.07-10.69-21.35-19.36-27.85-8.67-6.5-19.21-9.75-31.62-9.75-17.63,0-30.49,6.99-38.56,20.98V6.35h-58.07Zm63.24,90.28c3.45-3.35,7.34-5.02,11.67-5.02,5.51,0,10.14,2.34,13.89,7.02,3.74,4.68,5.61,16.13,5.61,34.35,0,16.75-1.65,27.8-4.95,33.17-3.3,5.37-8.05,8.05-14.26,8.05-11.43,0-17.14-7.39-17.14-22.16v-40.78c0-6.4,1.72-11.28,5.17-14.63Z"/>
  <path class="cls-2" d="m924.83,175.39c-18.42,0-28.96-5.42-31.62-16.25l-46.54,6.35c9.65,30.44,34.82,45.66,75.51,45.66,24.13,0,43.07-4.83,56.81-14.49,13.74-9.66,20.61-22.72,20.61-39.18,0-10.74-3.1-19.91-9.31-27.5-6.21-7.59-13.69-12.82-22.45-15.68-8.77-2.86-25.47-5.65-50.1-8.38-9.46-1.07-14.19-4.07-14.19-8.99,0-1.67,1.55-3.37,4.65-5.1,3.1-1.72,7.81-2.58,14.11-2.58,13.3,0,22.02,4.43,26.15,13.3l44.62-8.42c-10.05-26.3-33.3-39.45-69.74-39.45-20.79,0-37.58,4.75-50.39,14.26-12.81,9.5-19.21,21.94-19.21,37.31,0,11.03,3.79,21.06,11.38,30.07,7.58,9.01,26.65,15.64,57.18,19.87,11.03,1.48,18.03,2.93,20.98,4.36,2.95,1.43,4.43,3.42,4.43,5.99,0,5.91-7.63,8.86-22.9,8.86Z"/>
  <path class="cls-2" d="m1174.7,136.09c0-25.12-7.41-44.97-22.24-59.55-14.83-14.58-34.26-21.87-58.29-21.87s-44.67,7.73-59.55,23.2c-14.88,15.47-22.31,34.43-22.31,56.89s7.54,39.82,22.61,54.45c15.07,14.63,35.26,21.94,60.58,21.94,22.75,0,40.8-5.2,54.15-15.59,13.35-10.39,21.65-22.98,24.9-37.75l-54.97-3.69c-2.27,12.31-9.8,18.47-22.61,18.47-8.87,0-14.88-2.29-18.03-6.87-3.15-4.58-4.83-11.6-5.02-21.06h100.62c.1-3.64.15-6.5.15-8.57Zm-100.92-20.98c0-17.14,6.97-25.71,20.91-25.71,5.89,0,10.82,1.75,14.8,5.25,3.98,3.5,6.01,10.32,6.11,20.47h-41.82Z"/>
  <rect class="cls-1" x="516.57" y="57.77" width="58.96" height="150.27"/>
  <rect class="cls-2" x="516.57" width="58.96" height="46.69"/>
  <path class="cls-2" d="m1201.62,158.01c4.26,40.47,36.6,73.12,77.03,77.76,20.35,2.34,39.53-2.35,55.44-11.92l31.59,28.55c2.06,1.86,2.22,5.03.36,7.09-1.86,2.06-1.7,5.23.36,7.09l64.25,58.08c2.06,1.86,5.23,1.7,7.09-.36l27.9-30.86c1.86-2.06,1.7-5.23-.36-7.09l-64.26-58.08c-2.06-1.86-5.23-1.7-7.09.36h0c-1.86,2.06-5.03,2.22-7.09.36l-28.92-26.14c12.59-15.95,19.8-36.34,18.79-58.41-.69-15.18-5.34-29.42-12.91-41.71l-33.48,52.64c-1.23,7.43-4.39,14.21-8.98,19.78l-.95,1.05c-7.69,8.72-18.91,14.26-31.42,14.26-14.98,0-28.14-7.9-35.56-19.75l-18.1,19.68-7.24-5.4,19.19-32.23c-.14-1.39-.21-2.81-.21-4.24,0-17.4,10.65-32.35,25.77-38.69.99-.41,2-.78,3.02-1.12,4.13-1.37,8.55-2.12,13.13-2.12,15.34,0,28.78,8.29,36.09,20.62,7.54-11.09,17.34-25.87,26.61-40.01-14.73-15.07-34.79-24.93-57.02-26.33-54.17-3.43-98.77,42.55-93.02,97.14Z"/>
  <path class="cls-1" d="m1354.83,90.64c-8.67,13.21-19.31,29.31-27.43,41.18-1.09,1.59-2.13,3.1-3.11,4.52-4.85,6.98-8.33,11.71-9.17,12.15-4.4,2.28-39.88-33.87-39.88-33.87l-23.31,39.14-3.44,5.78-16.55,27.79,19.14-20.81,3.35-3.64,21.95-23.87,39.31,30.88,10.25-16.12,4.87-7.66,30.24-47.54,2.63-4.14,14.1-22.16,13.52,17.19c.59.75,1.78.29,1.73-.66l-2.62-44.39c-.04-.71-.81-1.14-1.44-.79l-38.66,21.35c-.88.48-.53,1.82.47,1.82h19.6s-5.47,8.44-12.97,19.9c-.84,1.28-1.7,2.59-2.58,3.94Z"/>
</svg>